<?xml version="1.0" encoding="iso-8859-1"?>
<!-- Generator: Adobe Illustrator 19.0.0, SVG Export Plug-In . SVG Version: 6.00 Build 0)  -->
<svg xmlns="http://www.w3.org/2000/svg" xmlns:xlink="http://www.w3.org/1999/xlink" version="1.1" id="Layer_1" x="0px" y="0px" viewBox="0 0 490.53 490.53" style="enable-background:new 0 0 490.53 490.53;" xml:space="preserve" width="512" height="512">
<g>
	<path style="fill:#833989;" d="M490.265,245.53c0,11.38-0.78,22.57-2.28,33.53c-16.35,119.45-118.79,211.47-242.72,211.47   c-32.65,0-63.82-6.39-92.31-17.98c-10.94-4.45-21.48-9.67-31.56-15.61c-8.81-5.16-17.25-10.87-25.32-17.06l-0.01-0.01   c-17.49-13.44-33.1-29.18-46.4-46.78c-31.01-41.04-49.4-92.16-49.4-147.56c0-29.28,5.14-57.36,14.56-83.39   c0.82-2.27,1.67-4.53,2.56-6.77c4.64-11.71,10.16-22.99,16.48-33.74c42.55-72.46,121.29-121.1,211.4-121.1   c15.05,0,29.79,1.36,44.09,3.96c13.03,2.36,25.69,5.76,37.91,10.1c2.37,0.84,4.72,1.71,7.05,2.62   c15.5,6.06,30.24,13.64,44.02,22.58c0.07,0.04,0.14,0.09,0.21,0.14c28.63,18.58,53.12,42.99,71.82,71.54   c1.85,2.83,3.65,5.69,5.38,8.6c5.23,8.75,9.93,17.86,14.05,27.28c8.71,19.87,14.85,41.12,18.01,63.33   C489.425,222.06,490.265,233.7,490.265,245.53z"/>
	<path style="fill:#FFDF57;" d="M469.795,147.35c0.21-1.32,0.32-2.66,0.32-4.03c0-0.87-0.04-1.76-0.13-2.65   c-0.68-6.67-3.82-12.49-8.44-16.65c-1.74-1.57-3.7-2.9-5.8-3.95c-3.48-1.73-7.39-2.7-11.47-2.71c2.4-1.65,4.44-3.65,6.09-5.89   c3.33-4.48,5.11-9.92,5.11-15.47c0-4.25-1.05-8.57-3.27-12.56c-0.04-0.07-0.08-0.13-0.12-0.19c-0.05-0.11-0.1-0.21-0.16-0.31   c-4.75-8.47-13.56-13.24-22.64-13.24c-3.49,0-7.03,0.7-10.39,2.18c2.56-4.18,3.81-8.86,3.81-13.52c0-7.79-3.49-15.5-10.15-20.6   c-4.71-3.6-10.26-5.34-15.76-5.34c-6.67,0-13.29,2.57-18.25,7.51c-0.09,0.08-0.19,0.18-0.28,0.27c0.03-0.14,0.05-0.27,0.07-0.41   c0.25-1.46,0.38-2.92,0.38-4.36c0-10.85-6.87-20.97-17.73-24.6c-2.72-0.91-5.49-1.34-8.21-1.34c-6.97,0-13.63,2.83-18.46,7.72   c-1.8,1.82-3.34,3.91-4.55,6.26c-0.29-3.15-1.16-6.14-2.5-8.88c-1.28-2.64-3.01-5.05-5.1-7.11c-4.23-4.18-9.92-6.94-16.32-7.41   c-0.65-0.05-1.3-0.07-1.94-0.07c-5.35,0-10.38,1.65-14.55,4.49c-5.08,3.46-8.9,8.7-10.5,14.89c-3.41-10.63-13.37-18-24.65-18   c-1.06,0-2.13,0.07-3.21,0.2c-6.25,0.77-11.7,3.7-15.7,7.95s-6.55,9.82-6.98,15.87c-4.51-8.48-13.39-13.75-22.88-13.75   c-2.45,0-4.94,0.35-7.41,1.09c-11.26,3.34-18.54,13.66-18.54,24.84c0,0.72,0.03,1.45,0.09,2.18c-4.95-6.58-12.69-10.32-20.71-10.32   c-3.7,0-7.45,0.79-11.02,2.47c-9.4,4.41-14.91,13.74-14.91,23.47c0,1.97,0.23,3.94,0.69,5.9c-4.93-4.88-11.54-7.48-18.25-7.48   c-4.9,0-9.84,1.38-14.24,4.27c-7.57,4.98-11.67,13.26-11.67,21.69c0,3.19,0.59,6.41,1.8,9.48c-4.53-3.34-9.94-5.04-15.36-5.04   c-6.18,0-12.37,2.2-17.32,6.65c-5.7,5.12-8.6,12.19-8.6,19.29c0,4.54,1.19,9.09,3.59,13.15c-3.74-1.93-7.82-2.88-11.87-2.88   c-2.66,0-5.3,0.41-7.84,1.22c-4.75,1.49-9.12,4.37-12.46,8.56c-3.8,4.77-5.64,10.47-5.64,16.13c0,3.08,0.55,6.15,1.62,9.05   c1.05,2.83,2.6,5.5,4.64,7.87c-2.37-0.72-4.8-1.08-7.2-1.1c-9.42,26.03-14.56,54.11-14.56,83.39c0,55.4,18.39,106.52,49.4,147.56   c3.55-1.29,6.86-3.37,9.63-6.2c-0.31,1.61-0.45,3.22-0.45,4.81c0,10.84,6.84,20.95,17.68,24.59c2.73,0.92,5.51,1.35,8.25,1.35   c9.53,0,18.5-5.3,23-13.95c0.57,6.19,3.34,11.81,7.57,16c4.22,4.19,9.91,6.95,16.31,7.43c0.65,0.05,1.3,0.07,1.94,0.07   c11.88,0,22.14-8.09,25.08-19.36c3.39,10.65,13.37,18.03,24.66,18.03c1.05,0,2.11-0.07,3.18-0.2c6.25-0.77,11.71-3.7,15.71-7.94   c4-4.25,6.56-9.82,7-15.86c4.51,8.49,13.39,13.76,22.9,13.76c2.44,0,4.91-0.34,7.37-1.07c11.28-3.35,18.57-13.68,18.57-24.87   c0-0.72-0.03-1.44-0.09-2.16c7.22,9.62,20.41,13.19,31.72,7.89v-0.01c11.29-5.29,16.98-17.68,14.24-29.37   c4.94,4.89,11.55,7.5,18.27,7.5c4.3,0,8.65-1.07,12.63-3.3c0.53-0.3,1.06-0.62,1.58-0.96c7.58-4.979,11.69-13.25,11.69-21.69   c0-3.19-0.59-6.4-1.8-9.47c4.54,3.35,9.95,5.04,15.38,5.04c6.17,0,12.36-2.18,17.32-6.63c5.7-5.12,8.6-12.2,8.6-19.3   c0-4.53-1.18-9.07-3.56-13.13c3.74,1.93,7.82,2.88,11.87,2.88c7.62,0,15.17-3.34,20.29-9.76c3.8-4.77,5.65-10.47,5.65-16.13   c0-6.09-2.13-12.13-6.25-16.92c2.48,0.76,5.02,1.12,7.53,1.12c9.39,0,18.44-5.11,23.05-14.02c1.97-3.8,2.91-7.87,2.91-11.89   c0-7.99-3.72-15.75-10.33-20.72c0.63,0.05,1.25,0.07,1.87,0.07c11.79,0,22.46-8.08,25.24-20.04c0.46-1.98,0.68-3.97,0.68-5.92   c0-10.63-6.56-20.34-16.63-24.19C460.365,166.22,468.175,157.69,469.795,147.35z M425.025,213.49c-0.62-0.04-1.23-0.07-1.85-0.07   c-9.39,0-18.44,5.11-23.04,14.02c-1.97,3.81-2.91,7.88-2.91,11.89c0,6.17,2.21,12.19,6.25,16.9c-2.46-0.74-4.99-1.11-7.52-1.11   c-7.62,0-15.17,3.34-20.29,9.76c-3.81,4.77-5.66,10.48-5.66,16.15c0,4.58,1.21,9.13,3.56,13.15c-3.71-1.91-7.8-2.88-11.9-2.88   c-6.17,0-12.35,2.19-17.3,6.63c-5.71,5.12-8.61,12.2-8.61,19.31c0,3.21,0.59,6.42,1.78,9.47c-4.48-3.3-9.89-5.04-15.38-5.04   c-4.89,0-9.83,1.38-14.22,4.26c-7.58,4.98-11.69,13.25-11.69,21.69c0,1.96,0.23,3.93,0.68,5.87c-7.51-7.43-19.13-9.78-29.24-5.03   c-0.59,0.26-1.15,0.56-1.7,0.87c-8.37,4.69-13.24,13.48-13.24,22.63c0,0.71,0.03,1.42,0.09,2.13   c-4.87-6.46-12.56-10.33-20.71-10.33c-2.44,0-4.9,0.34-7.36,1.07c-5.32,1.57-9.74,4.7-12.94,8.73c-3.2,4.04-5.17,8.98-5.56,14.18   c-4.41-8.29-13.15-13.74-22.86-13.74c-1.05,0-2.11,0.06-3.18,0.19c-0.01,0-0.01,0-0.01,0c-5.43,0.66-10.25,2.95-14.05,6.33   c-3.8,3.38-6.58,7.84-7.89,12.82c-1.56-4.88-4.54-9.16-8.48-12.32c-3.95-3.16-8.85-5.2-14.28-5.61c-0.66-0.05-1.32-0.07-1.97-0.07   c-9.85,0-18.59,5.58-22.95,13.93c-0.47-4.95-2.36-9.64-5.38-13.52c-3.02-3.89-7.18-6.95-12.19-8.63c-2.73-0.91-5.51-1.35-8.24-1.35   c-6.98,0-13.65,2.84-18.5,7.75c0.3-1.59,0.45-3.19,0.45-4.8c0-7.77-3.49-15.45-10.13-20.56c-4.71-3.62-10.27-5.38-15.78-5.38   c-3.56,0-7.1,0.73-10.38,2.16c2.51-4.08,3.84-8.8,3.84-13.59c0-4.28-1.06-8.61-3.29-12.61c-2.37-4.24-5.75-7.55-9.68-9.81   c-3.92-2.27-8.39-3.47-12.92-3.48c6.8-4.74,11.14-12.6,11.14-21.27c0-0.89-0.05-1.79-0.14-2.69c-0.52-5.03-2.45-9.57-5.34-13.28   c-2.9-3.71-6.77-6.59-11.18-8.28c4.68-1.07,8.97-3.43,12.37-6.77c3.41-3.34,5.94-7.66,7.09-12.65c0.46-1.97,0.68-3.95,0.68-5.89   c0-8.2-3.92-15.86-10.34-20.69c0.6,0.04,1.2,0.06,1.8,0.06c9.39,0,18.46-5.12,23.07-14.04c1.96-3.8,2.89-7.87,2.89-11.87   c0-6.17-2.21-12.21-6.26-16.92c2.45,0.74,4.98,1.11,7.51,1.11c7.62,0,15.17-3.35,20.29-9.78c0-0.01,0-0.01,0-0.01   c3.8-4.77,5.64-10.46,5.64-16.12c0-4.59-1.21-9.15-3.57-13.17c3.7,1.91,7.79,2.87,11.88,2.87c6.17,0,12.37-2.19,17.32-6.65   c5.7-5.11,8.59-12.19,8.59-19.29c0-3.22-0.59-6.44-1.79-9.49c4.49,3.3,9.9,5.03,15.38,5.03c4.89,0,9.83-1.38,14.23-4.27   c7.56-4.99,11.67-13.25,11.67-21.67c0-1.97-0.22-3.95-0.68-5.89c4.86,4.8,11.46,7.48,18.24,7.48c3.7,0,7.45-0.8,11.01-2.47   c9.4-4.42,14.91-13.74,14.91-23.48c0-0.71-0.03-1.43-0.09-2.15c4.87,6.44,12.55,10.31,20.69,10.31c2.45,0,4.94-0.35,7.41-1.09   c5.31-1.57,9.73-4.7,12.92-8.73c3.19-4.04,5.16-8.98,5.55-14.2c4.41,8.29,13.13,13.74,22.84,13.74c1.06,0,2.14-0.07,3.22-0.2   c5.42-0.67,10.25-2.97,14.05-6.35c3.8-3.38,6.57-7.83,7.87-12.82c1.56,4.87,4.55,9.15,8.5,12.31c3.94,3.16,8.86,5.2,14.28,5.6   c0.65,0.05,1.3,0.07,1.94,0.07c9.87,0,18.62-5.6,22.97-13.96c0.47,4.95,2.37,9.64,5.4,13.52c3.03,3.87,7.19,6.93,12.21,8.61   c2.72,0.91,5.49,1.34,8.21,1.34c6.99,0,13.68-2.85,18.52-7.78c-0.29,1.58-0.44,3.17-0.44,4.76c0,7.79,3.49,15.48,10.16,20.59   c4.7,3.6,10.25,5.34,15.75,5.34c3.57,0,7.13-0.729,10.42-2.17c-2.49,4.07-3.81,8.77-3.81,13.54c0,4.29,1.07,8.65,3.32,12.66   c0.02,0.03,0.04,0.07,0.05,0.09c0.04,0.08,0.09,0.16,0.13,0.23c2.35,4.25,5.73,7.58,9.65,9.84c3.91,2.27,8.38,3.48,12.91,3.5   c-6.81,4.73-11.17,12.59-11.17,21.27c0,0.89,0.05,1.78,0.14,2.68c0.51,5.03,2.42,9.57,5.31,13.29c2.89,3.71,6.75,6.6,11.17,8.3   c-4.68,1.06-8.98,3.42-12.39,6.75c-3.41,3.33-5.95,7.65-7.11,12.64c-0.46,1.98-0.68,3.96-0.68,5.91   C414.705,201,418.615,208.65,425.025,213.49z"/>
	<g>
		<path style="fill:#F73A65;" d="M319.153,279.805c-30.178,11.591-58.084,27.237-83.716,46.937    c-7.749,5.956-10.824,16.248-7.511,25.443c9.842,27.314,23.847,52.293,42.016,74.939c6.116,7.623,16.501,10.369,25.625,6.864    c30.178-11.592,58.083-27.237,83.715-46.937c7.75-5.956,10.825-16.248,7.511-25.443c-9.842-27.314-23.848-52.294-42.016-74.939    C338.662,279.046,328.277,276.301,319.153,279.805z"/>
		<path style="fill:#DD0D3E;" d="M308.432,428.741c-4.235,1.84-8.536,3.585-12.868,5.253c-9.116,3.506-19.502,0.757-25.621-6.869    c-18.174-22.638-32.182-47.623-42.015-74.937c-3.315-9.199-0.236-19.485,7.505-25.442c3.692-2.831,7.424-5.589,11.212-8.248    c-4.999,6.31-6.571,14.872-3.758,22.688c10.37,28.76,25.119,55.066,44.246,78.916C292.32,426.574,300.45,429.709,308.432,428.741z    "/>
		<g>
			<path style="fill:#FFFFFF;" d="M270.787,339.445c-1.747-3.116,0.69-6.53,4-8.386l33.786-18.943     c3.213-1.802,6.487,0.842,8.234,3.958c2.02,3.602,2.111,7.646-0.81,9.284l-25.218,14.139l9.226,16.455l14.702-8.243     c2.921-1.638,6.159,0.257,7.906,3.373c1.474,2.629,1.857,6.509-1.355,8.311l-14.702,8.243l14.084,25.121     c1.747,3.116-1.177,6.803-4.974,8.932c-3.797,2.129-8.468,2.7-10.215-0.416L270.787,339.445z"/>
		</g>
	</g>
	<g>
		<path style="fill:#F73A65;" d="M220.405,453.82c-21.91,8.64-44.4,14.89-67.45,18.73c-20.49-8.34-39.59-19.38-56.88-32.67    c-6.3-19.86-10.14-40.31-11.54-61.33c-0.65-9.75,5.15-18.79,14.24-22.38c30.07-11.87,61.21-19.21,93.41-22.03    c9.74-0.85,18.96,4.66,22.74,13.67c11.22,26.78,17.79,54.65,19.72,83.62C235.285,441.18,229.495,450.23,220.405,453.82z"/>
		<path style="fill:#DD0D3E;" d="M121.395,456.94c-8.81-5.16-17.25-10.87-25.32-17.06l-0.01-0.01c-6.3-19.86-10.14-40.3-11.53-61.31    c-0.65-9.76,5.15-18.8,14.23-22.39c4.33-1.7,8.68-3.32,13.05-4.84c-6.54,4.69-10.41,12.49-9.87,20.78    C103.905,401.45,110.385,429.72,121.395,456.94z"/>
		<g>
			<path style="fill:#FFFFFF;" d="M129.247,378.128c-0.82-3.476,2.464-6.086,6.157-6.956l22.273-5.252     c10.864-2.562,22.652-1.211,26.289,14.217c2.075,8.8-0.044,15.378-5.213,19.234c7.216,0.936,12.728,3.88,15.289,14.746     l0.538,2.281c4.047,17.166-4.054,25.614-16.33,28.509l-24.121,5.686c-4.563,1.075-7.95-0.649-8.591-3.365L129.247,378.128z      M170.964,431.026c5.432-1.281,7.974-5.091,6.335-12.045l-0.409-1.739c-1.742-7.387-5.617-9.227-11.049-7.946l-10.864,2.562     l5.123,21.73L170.964,431.026z M151.901,398.821l11.408-2.69c4.129-0.974,5.297-5.263,4.426-8.957     c-0.897-3.803-3.857-7.118-7.986-6.145l-11.408,2.69L151.901,398.821z"/>
		</g>
	</g>
	<g>
		<path style="fill:#F73A65;" d="M490.265,245.53c0,11.38-0.78,22.57-2.28,33.53c-15.42,17.56-32.6,33.36-51.52,47.41    c-7.85,5.83-18.59,5.98-26.53,0.28c-23.58-16.93-43.79-37.23-60.61-60.89c-5.66-7.97-5.46-18.71,0.4-26.53    c19.4-25.86,42.07-48.43,68.02-67.71c7.85-5.82,18.59-5.97,26.53-0.27c16.09,11.54,30.6,24.65,43.53,39.33    C489.425,222.06,490.265,233.7,490.265,245.53z"/>
		<path style="fill:#DD0D3E;" d="M447.447,317.961c-3.585,2.911-7.258,5.747-10.983,8.518c-7.838,5.826-18.582,5.97-26.525,0.269    c-23.589-16.921-43.796-37.222-60.608-60.889c-5.665-7.969-5.464-18.705,0.391-26.523c2.795-3.719,5.649-7.379,8.583-10.958    c-3.119,7.421-2.332,16.091,2.477,22.863c17.718,24.915,38.994,46.289,63.827,64.122    C431.345,320.204,440.018,321.038,447.447,317.961z"/>
		<g>
			<path style="fill:#FFFFFF;" d="M387.189,242.066c-2.52-2.531-1.09-6.475,1.599-9.152l27.452-27.326     c2.611-2.599,6.475-0.931,8.995,1.6c2.914,2.927,4.089,6.798,1.715,9.16l-20.49,20.396l13.308,13.369l11.946-11.891     c2.374-2.363,6.002-1.407,8.522,1.124c2.127,2.136,3.538,5.77,0.928,8.369l-11.946,11.891l20.317,20.411     c2.52,2.531,0.695,6.869-2.391,9.94c-3.086,3.072-7.43,4.876-9.95,2.345L387.189,242.066z"/>
		</g>
	</g>
</g>















</svg>
